<svg width="24" height="24" viewBox="0 0 24 24" fill="none" xmlns="http://www.w3.org/2000/svg">
<path d="M21.0464 5.49846C21.1395 6.71873 21.2804 10.0468 20.5004 14C19.7028 18.0424 14.6383 20.7776 12.7277 21.6769C12.2639 21.8953 11.7352 21.8953 11.2714 21.6769C9.36093 20.7775 4.29703 18.0424 3.49957 14C2.71964 10.0465 2.86098 6.71827 2.95432 5.49821C2.97843 5.18299 3.15939 4.90933 3.43862 4.7611C4.77692 4.05062 8.90736 2 11.9989 2C15.0905 2 19.2228 4.05058 20.5619 4.76108C20.8412 4.90932 21.0223 5.18311 21.0464 5.49846Z" stroke="#121219" stroke-width="2"/>
<path d="M9.00018 11.665L10.9365 13.878C11.1428 14.1137 11.5125 14.1039 11.706 13.8577L15.0002 9.66504" stroke="#121219" stroke-width="2" stroke-linecap="round" stroke-linejoin="round"/>
</svg>
